# xmcd
#
# Track frame offsets:
#	182
#	11640
#	22312
#	28950
#	38972
#	48890
#	61735
#	72980
#	91055
#	105447
#	121197
#	133350
#	144320
#	153915
#	167490
#	180392
#	195205
#	207212
#	222452
#	234210
#
# Disc length: 3305
#
# Revision: 5
# Processed by: cddbd v1.5.1PL0 Copyright (c) Steve Scherf et al.
# Submitted via: EasyCDDAExtractor 5.0.2.1
# Normalized: r4:DSETVAR1
#
DISCID=0a0ce714
DTITLE=Various Artist - White Boy Blues
DYEAR=1900
DGENRE=Blues
TTITLE0=Eric Clapton - Snake Drive
TTITLE1=Eric Clapton - West Coast Idea
TTITLE2=Eric Clapton and Jimmy Page - Choker
TTITLE3=John Mayall and The Bluesbreakers - I'm Your Witchdoctor
TTITLE4=Eric Clapton - Tribute To Elmore
TTITLE5=Eric Clapton and Jimmy Page - Freight Loader
TTITLE6=Eric Clapton and Jimmy Page - Miles Road
TTITLE7=John Mayall and The Bluesbreakers - Telephone Blues
TTITLE8=Eric Clapton and Jimmy Page - Draggin' My Tail
TTITLE9=The All Stars and Jimmy Page - Down In The Boots
TTITLE10=The All Stars and Jeff Beck - Steelin'
TTITLE11=The All Stars and Jeff Beck - Chuckles
TTITLE12=The All Stars and Jimmy Page - L.A. Breakdown
TTITLE13=The All Stars and Nicky Hopkins - Piano Shuffle
TTITLE14=The All Stars and Cyril Davies - Someday Baby
TTITLE15=Santa Barbara and Machine Head - Porcupine Juice
TTITLE16=Santa Barbara and Machine Head - Rubber Monkey
TTITLE17=Santa Barbara and Machine Head - Albert
TTITLE18=Jeremy Spencer - Who's Knocking
TTITLE19=Jeremy Spencer - Look Down At My Woman
EXTD=heungsoon lee
EXTT0=
EXTT1=
EXTT2=
EXTT3=
EXTT4=
EXTT5=
EXTT6=
EXTT7=
EXTT8=
EXTT9=
EXTT10=
EXTT11=
EXTT12=
EXTT13=
EXTT14=
EXTT15=
EXTT16=
EXTT17=
EXTT18=
EXTT19=
PLAYORDER=
